<svg xmlns="http://www.w3.org/2000/svg" width="256" height="256"><path fill-opacity=".016" d="M0 128.004v128.004l128.25-.254 128.25-.254.254-127.75L257.008 0H0v128.004m.485.496c0 70.4.119 99.053.265 63.672.146-35.38.146-92.98 0-128C.604 29.153.485 58.1.485 128.5" fill="#212121" fill-rule="evenodd"/><path fill-opacity=".386" d="M101 34.079c-5.535 2.502-10.492 7.133-13.297 12.421-1.72 3.241-2.197 6.211-2.515 15.661l-.393 11.661-19.648.354c-17.522.316-20.153.586-24.323 2.5-6.29 2.887-13.421 9.641-16.663 15.784L21.5 97.5v103l2.78 5.661c3.053 6.216 8.305 11.511 14.925 15.046L43.5 223.5h169l5.359-2.968c6.068-3.361 11.079-8.745 14.386-15.456 2.251-4.567 2.255-4.675 2.255-55.576v-51l-2.358-5.214c-2.8-6.194-10.313-13.558-16.925-16.592-4.22-1.936-6.787-2.201-24.364-2.518l-19.648-.354-.39-11.661c-.423-12.666-1.227-15.144-7.076-21.806-1.774-2.02-5.478-4.721-8.232-6.004-4.781-2.226-6.025-2.331-27.507-2.319-20.471.011-22.906.195-27 2.047m7.2 21.121c-.752.752-1.2 4.489-1.2 10V74h42v-8.8c0-5.511-.448-9.248-1.2-10-1.692-1.692-37.908-1.692-39.6 0M49.014 97.742c-1.917.967-4.048 2.883-4.735 4.258-.943 1.886-1.253 13.502-1.264 47.3-.016 47.81.106 49.089 4.93 51.67 1.272.681 28.499 1.03 80.433 1.03h78.51l2.806-2.413 2.806-2.413.278-47.039.279-47.04-2.946-3.297-2.946-3.298-77.333-.258c-72.104-.241-77.568-.14-80.818 1.5m67.065 15.844c-17.383 6.309-28.387 24.475-25.217 41.625 1.558 8.431 4.92 14.683 11.259 20.938 17.93 17.696 47.836 12.682 59.264-9.936 7.237-14.324 5.001-30.282-5.892-42.047-7.744-8.365-14.507-11.452-25.993-11.863-6.439-.23-10.258.135-13.421 1.283m3.911 22.664c-5.321 3.621-7.375 7.123-7.375 12.574 0 5.503 2.402 10.361 6.708 13.571 3.924 2.925 13.362 2.954 17.354.053 4.427-3.218 7.654-10.529 6.822-15.455-1.81-10.71-14.821-16.656-23.509-10.743" fill="#212121" fill-rule="evenodd"/><path fill-opacity=".234" d="M103.316 33.326c-6.534 2.409-11.959 7.245-14.934 13.313-2.538 5.175-2.916 7.169-3.233 17.04l-.36 11.179-20.645.321L43.5 75.5l-5.319 2.946c-6.476 3.588-10.64 8.174-14.08 15.508L21.5 99.5v100l2.352 5.202c2.974 6.574 11.105 14.347 17.651 16.871 4.788 1.846 8.427 1.927 86.997 1.927h82l4.72-2.201c6.983-3.258 13.108-9.411 16.179-16.254l2.67-5.949-.284-51.298L233.5 96.5l-2.971-5.364c-3.544-6.399-9.549-11.576-16.484-14.211-4.35-1.653-7.733-1.925-23.93-1.925h-18.863l-.435-11.349c-.378-9.884-.795-12.086-3.232-17.067-3.204-6.548-9.56-11.829-16.278-13.525-5.769-1.457-43.891-1.244-47.991.267m5.907 21.231c-2.03 1.421-2.223 2.375-2.223 11V75h42v-9.345C149 52.602 149.648 53 128.394 53c-13.722 0-17.372.296-19.171 1.557M48.5 97.161c-5.638 3.1-5.454 1.343-5.478 52.073L43 195.968l2.918 3.266 2.917 3.266 78.098.268c86.382.296 82.244.593 85.432-6.125 1.435-3.023 1.634-8.699 1.629-46.294-.003-26.99-.396-44.256-1.061-46.651-.709-2.555-2.102-4.44-4.244-5.746-3.087-1.882-5.665-1.944-80.689-1.918-54.432.019-78.095.354-79.5 1.127m68 16.877c-16.367 5.252-26.342 20.194-25.284 37.877.593 9.917 3.956 17.066 11.29 24.003 8.347 7.894 12.839 9.582 25.494 9.582 9.624 0 10.982-.244 16.278-2.926 29.62-15 26.353-58.638-5.133-68.569-7.868-2.482-14.84-2.472-22.645.033m4.901 20.867c-8.449 3.838-11.822 14.015-7.307 22.048 3.186 5.669 7.335 8.047 14.042 8.047 17.118 0 22.06-23.011 6.463-30.095-2.254-1.023-5.224-1.861-6.599-1.861s-4.345.838-6.599 1.861" fill="#212121" fill-rule="evenodd"/><path fill-opacity=".483" d="M103.183 33.902C97.542 35.85 92.276 40.244 88.684 46c-1.847 2.96-2.261 5.427-2.684 16l-.5 12.5L65 75c-18.839.459-20.88.687-25.195 2.813-5.64 2.777-12.166 9.088-15.136 14.636-2.146 4.009-2.169 4.6-2.169 56.551v52.5l2.946 5.319c3.579 6.461 8.214 10.678 15.3 13.922 4.748 2.174 6.434 2.406 15.266 2.101l9.929-.342 5.836-5.777c3.209-3.177 6.084-5.529 6.387-5.226.303.303 1.178-.247 1.943-1.223 1.267-1.613 1.234-1.65-.357-.402-2.128 1.669-2.366-.116-.25-1.872 2.25-1.867 1.818-2.976-1.25-3.209-1.513-.115 4-.471 12.25-.791 13.116-.509 11.571-.608-12.3-.791-30.46-.233-32.2-.571-34.779-6.743-2.071-4.958-2.095-88.916-.027-93.867 2.849-6.818 1.02-6.584 52.579-6.738 42.682-.128 103.013-1.228 91.774-1.673L182.994 94l4.151-3.75c2.283-2.062 4.497-3.75 4.92-3.75.422 0 1.143-.41 1.602-.91.492-.538.268-.583-.547-.111-.947.549-1.227.364-.892-.59.268-.764 1.221-1.327 2.119-1.252.897.075 1.421-.204 1.163-.621-.258-.417.464-1.828 1.603-3.137l2.071-2.379-11.342-1.149c-6.238-.632-12.805-1.194-14.592-1.25L170 75l-.01-11.25c-.008-9.703-.333-11.945-2.364-16.306-2.937-6.308-9.501-12.032-16.014-13.967-7.809-2.319-41.337-2.025-48.429.425M108 55c-1.704 1.704-2 3.333-2 11v9h44v-9c0-13.293.496-13-22-13-16.667 0-18.148.148-20 2m12 58.349c-11.614 2.67-20.185 9.601-25.345 20.492-2.822 5.957-3.153 7.608-3.132 15.659.02 7.593.436 9.887 2.661 14.675 3.459 7.444 10.157 14.758 13.289 14.51 1.498-.119 3.84-2.072 6.518-5.435 2.298-2.887 4.538-5.25 4.977-5.25.44 0 1.029-.879 1.31-1.954.347-1.327-.273-2.468-1.931-3.555-6.422-4.207-8.488-15.05-4.097-21.501 3.165-4.65 6.76-7.048 11.526-7.687 5.76-.772 8.651.19 13.438 4.472 2.289 2.049 3.794 3.11 3.344 2.359-.538-.896.059-2.271 1.737-4 5.842-6.02 7.584-8.179 8.222-10.187.656-2.069.724-2.076 2.897-.283 1.224 1.01-.146-.486-3.043-3.323-8.371-8.197-20.807-11.652-32.371-8.992m-13 66.141c0 .685 6.123 3.72 6.58 3.263.217-.217-1.174-1.143-3.093-2.058-1.918-.914-3.487-1.456-3.487-1.205" fill="#212121" fill-rule="evenodd"/></svg>